<?xml version="1.0" standalone="no"?>
<!DOCTYPE svg PUBLIC "-//W3C//DTD SVG 20010904//EN"
 "http://www.w3.org/TR/2001/REC-SVG-20010904/DTD/svg10.dtd">
<svg version="1.0" xmlns="http://www.w3.org/2000/svg"
 width="512.000000pt" height="512.000000pt" viewBox="0 0 512.000000 512.000000"
 preserveAspectRatio="xMidYMid meet">

<g transform="translate(0.000000,512.000000) scale(0.100000,-0.100000)"
fill="#000000" stroke="none">
<path d="M2457 5110 c-61 -16 -82 -27 -976 -543 -926 -534 -902 -518 -917
-614 -9 -61 10 -117 54 -163 24 -25 319 -200 862 -513 454 -261 839 -482 857
-491 120 -61 330 -59 456 5 23 12 409 233 857 491 541 312 827 483 852 508 44
46 63 102 54 163 -15 96 11 79 -932 623 -478 275 -889 509 -914 519 -52 20
-196 29 -253 15z"/>
<path d="M335 3502 c-47 -22 -101 -80 -112 -120 -5 -15 -8 -486 -8 -1047 l0
-1020 23 -68 c26 -75 90 -168 143 -208 19 -15 426 -253 904 -529 662 -382 880
-504 911 -507 80 -10 161 36 195 112 18 38 19 91 19 1032 0 682 -3 1009 -11
1045 -17 84 -74 191 -135 258 -67 71 -16 40 -1003 610 -701 404 -789 452 -835
456 -37 4 -62 0 -91 -14z"/>
<path d="M4650 3510 c-14 -4 -403 -226 -865 -492 -770 -445 -846 -491 -911
-554 -78 -75 -132 -173 -153 -272 -8 -36 -11 -363 -11 -1045 0 -941 1 -994 19
-1032 34 -76 114 -122 195 -113 31 4 243 122 886 493 465 268 870 504 900 524
69 47 140 139 171 222 l23 64 4 970 c2 534 0 1002 -3 1042 -8 92 -40 144 -109
178 -50 25 -99 30 -146 15z"/>
</g>
</svg>
